<svg xmlns="http://www.w3.org/2000/svg" viewBox="0 0 262.19 55.46"><g id="Layer_2" data-name="Layer 2"><g id="Layer_1-2" data-name="Layer 1"><path d="M16.34,44.25a17.4,17.4,0,0,1-8.7-2.09A14.43,14.43,0,0,1,2,36.46a16.6,16.6,0,0,1-2-8.14,18,18,0,0,1,2.15-9.06,15.35,15.35,0,0,1,5.64-5.75,14.51,14.51,0,0,1,7.37-2,13.53,13.53,0,0,1,5.7,1.23,15.62,15.62,0,0,1,4.75,3.4,16.55,16.55,0,0,1,3.27,5,15.13,15.13,0,0,1,1.21,6A3,3,0,0,1,29,29.44a3.76,3.76,0,0,1-2.48.89H4l-1.77-5.9H23.84l-1.3,1.18V24A5.34,5.34,0,0,0,21.33,21a7.81,7.81,0,0,0-2.72-2.16A7.72,7.72,0,0,0,15.16,18a11,11,0,0,0-3.3.47A6.3,6.3,0,0,0,9.2,20.06a7.93,7.93,0,0,0-1.77,3,15,15,0,0,0-.64,4.78,10.39,10.39,0,0,0,1.32,5.4A9.07,9.07,0,0,0,16,37.76a14.07,14.07,0,0,0,3.48-.35,7.79,7.79,0,0,0,2.09-.86c.54-.33,1-.62,1.45-.85a4.46,4.46,0,0,1,2-.54,3,3,0,0,1,3,3A3.66,3.66,0,0,1,26.37,41a13.63,13.63,0,0,1-4.3,2.28A17.16,17.16,0,0,1,16.34,44.25Z"/><path d="M34.16,38.76a3.31,3.31,0,0,1-.53-2.12,2.84,2.84,0,0,1,1.53-2.24,3.16,3.16,0,0,1,2-.5A3.33,3.33,0,0,1,39.23,35a13.9,13.9,0,0,0,3.6,2.65,10.52,10.52,0,0,0,4.72,1,15.62,15.62,0,0,0,2-.27,3.75,3.75,0,0,0,1.86-.94,3,3,0,0,0,.8-2.27A2.6,2.6,0,0,0,51.27,33a7.64,7.64,0,0,0-2.33-1.3c-1-.35-2-.69-3.22-1S43.26,30,42,29.56a15.38,15.38,0,0,1-3.51-1.68,8.08,8.08,0,0,1-2.6-2.75,8.37,8.37,0,0,1-1-4.3,7.8,7.8,0,0,1,1.65-5,10.77,10.77,0,0,1,4.28-3.18,13.85,13.85,0,0,1,5.51-1.12,17.55,17.55,0,0,1,3.84.44A14.71,14.71,0,0,1,54,13.36a9.46,9.46,0,0,1,3.07,2.57,4.23,4.23,0,0,1,.77,2.12A2.55,2.55,0,0,1,56.7,20.3a2.91,2.91,0,0,1-2.07.62,3.13,3.13,0,0,1-1.94-.8A7.06,7.06,0,0,0,50,18.05a9.23,9.23,0,0,0-3.86-.76,10.45,10.45,0,0,0-1.92.2,3.82,3.82,0,0,0-1.8.89,2.73,2.73,0,0,0-.77,2.15,2.78,2.78,0,0,0,.89,2.16A6.58,6.58,0,0,0,44.93,24c1,.34,2.07.66,3.21,1s2.38.69,3.6,1.12a14.24,14.24,0,0,1,3.37,1.71,8.15,8.15,0,0,1,2.47,2.74,8.66,8.66,0,0,1,1,4.28,7.73,7.73,0,0,1-1.77,5.13,11.22,11.22,0,0,1-4.43,3.22,14.11,14.11,0,0,1-5.43,1.09,21,21,0,0,1-7-1.21A12,12,0,0,1,34.16,38.76Z"/><path d="M80.77,11.51a13.4,13.4,0,0,1,7.4,2.09,14.85,14.85,0,0,1,5.2,5.75,18.15,18.15,0,0,1,1.91,8.5,18.29,18.29,0,0,1-1.91,8.52,15,15,0,0,1-5.14,5.79A13,13,0,0,1,81,44.25a12.65,12.65,0,0,1-4.43-.77A14.24,14.24,0,0,1,73,41.54a11.43,11.43,0,0,1-2.42-2.39,3.81,3.81,0,0,1-.85-2l1.83-.77V51.86a3.55,3.55,0,0,1-1,2.57,3.37,3.37,0,0,1-2.53,1,3.43,3.43,0,0,1-2.54-1,3.52,3.52,0,0,1-1-2.6V15.69a3.52,3.52,0,0,1,1-2.56,3.63,3.63,0,0,1,5.07,0,3.53,3.53,0,0,1,1,2.56v2.89l-1-.53a3.3,3.3,0,0,1,.83-1.85A12,12,0,0,1,73.57,14a13.39,13.39,0,0,1,3.28-1.8A10.94,10.94,0,0,1,80.77,11.51ZM79.88,18a8,8,0,0,0-4.54,1.29,8.88,8.88,0,0,0-3,3.51,11.39,11.39,0,0,0-1.09,5.05,11.57,11.57,0,0,0,1.09,5,8.66,8.66,0,0,0,3,3.57,8,8,0,0,0,4.54,1.3,7.83,7.83,0,0,0,4.52-1.3,8.75,8.75,0,0,0,3-3.57,11.57,11.57,0,0,0,1.09-5,11.39,11.39,0,0,0-1.09-5.05,9,9,0,0,0-3-3.51A7.9,7.9,0,0,0,79.88,18Z"/><path d="M126.38,14.22a1.11,1.11,0,0,1,.85.35,1.18,1.18,0,0,1,.33.83V42.48a1.2,1.2,0,0,1-2,.83,1.17,1.17,0,0,1-.32-.83V34.1l.94-.77a8.89,8.89,0,0,1-.94,3.84,12.44,12.44,0,0,1-2.6,3.54,13.11,13.11,0,0,1-3.89,2.57,12,12,0,0,1-4.84,1,12.44,12.44,0,0,1-7.05-2.06A14.24,14.24,0,0,1,102,36.58a17.57,17.57,0,0,1-1.77-8,16.93,16.93,0,0,1,1.8-7.94,13.93,13.93,0,0,1,4.9-5.43,13.23,13.23,0,0,1,11.77-1.06,12,12,0,0,1,6.55,6.43,12.32,12.32,0,0,1,.94,4.81L125.2,24V15.4a1.17,1.17,0,0,1,.32-.83A1.13,1.13,0,0,1,126.38,14.22ZM114,42a10.38,10.38,0,0,0,5.9-1.74A11.93,11.93,0,0,0,124,35.49a15.6,15.6,0,0,0,1.47-6.87A14.78,14.78,0,0,0,124,22a12,12,0,0,0-4.07-4.72,10.38,10.38,0,0,0-5.9-1.74,10.5,10.5,0,0,0-5.84,1.68A11.71,11.71,0,0,0,104,21.83a14.79,14.79,0,0,0-1.5,6.79A15.47,15.47,0,0,0,104,35.49a11.77,11.77,0,0,0,4.07,4.78A10.33,10.33,0,0,0,114,42Z"/><path d="M161.48,0a1.15,1.15,0,0,1,.86.35,1.23,1.23,0,0,1,.32.83v41.3a1.16,1.16,0,0,1-.35.83,1.18,1.18,0,0,1-.83.35,1.15,1.15,0,0,1-.86-.35,1.22,1.22,0,0,1-.32-.83V34.1l.94-1.3a9.83,9.83,0,0,1-.91,4.05,12.55,12.55,0,0,1-2.6,3.71,13.09,13.09,0,0,1-3.92,2.69,11.72,11.72,0,0,1-4.84,1,12.45,12.45,0,0,1-7-2,14.26,14.26,0,0,1-4.9-5.54,17.16,17.16,0,0,1-1.8-7.94,17.12,17.12,0,0,1,1.8-7.93,14.14,14.14,0,0,1,4.9-5.52,12.58,12.58,0,0,1,7-2,12,12,0,0,1,4.63.91,12.47,12.47,0,0,1,6.64,6.43,11.51,11.51,0,0,1,1,4.81L160.3,24V1.18a1.23,1.23,0,0,1,.32-.83A1.15,1.15,0,0,1,161.48,0ZM149.09,42A10.45,10.45,0,0,0,155,40.3a11.76,11.76,0,0,0,4-4.72,15.43,15.43,0,0,0,1.48-6.85,15.22,15.22,0,0,0-1.48-6.81A11.65,11.65,0,0,0,155,17.23a10.93,10.93,0,0,0-11.74,0,11.87,11.87,0,0,0-4.1,4.69,15,15,0,0,0-1.51,6.81,15,15,0,0,0,1.51,6.79,12.12,12.12,0,0,0,4.1,4.75A10.26,10.26,0,0,0,149.09,42Z"/><path d="M185,13.87a10.88,10.88,0,0,1,6,1.79,9.14,9.14,0,0,1,3.74,5.64l-.76.53.29-1.12A8.39,8.39,0,0,1,197,17.23a16,16,0,0,1,4.3-2.45,13,13,0,0,1,4.64-.91,10.35,10.35,0,0,1,5.84,1.53,9.13,9.13,0,0,1,3.39,4.1,14.68,14.68,0,0,1,1.09,5.81V42.48a1.22,1.22,0,0,1-.32.83,1.23,1.23,0,0,1-1.72,0,1.22,1.22,0,0,1-.32-.83V25.55a13,13,0,0,0-.85-4.75,7.45,7.45,0,0,0-2.66-3.42,7.93,7.93,0,0,0-4.69-1.27,10.55,10.55,0,0,0-5,1.27,11.26,11.26,0,0,0-4,3.42,7.91,7.91,0,0,0-1.56,4.75V42.48a1.18,1.18,0,0,1-.33.83,1.11,1.11,0,0,1-.85.35,1.13,1.13,0,0,1-.86-.35,1.22,1.22,0,0,1-.32-.83V25.25a12.72,12.72,0,0,0-.8-4.6,7.1,7.1,0,0,0-2.51-3.3A7.54,7.54,0,0,0,185,16.11a10.11,10.11,0,0,0-4.81,1.24,11.31,11.31,0,0,0-3.86,3.3,7.5,7.5,0,0,0-1.54,4.6V42.48a1.12,1.12,0,0,1-.35.83,1.16,1.16,0,0,1-.83.35,1.11,1.11,0,0,1-.85-.35,1.18,1.18,0,0,1-.33-.83V15.4a1.2,1.2,0,0,1,2-.83,1.17,1.17,0,0,1,.32.83v6.43l-1.77,3a8.61,8.61,0,0,1,1-4,12.52,12.52,0,0,1,2.68-3.51,13.42,13.42,0,0,1,3.84-2.51A10.94,10.94,0,0,1,185,13.87Z"/><path d="M227.26,9.26a2.05,2.05,0,0,1-1.5-.53,1.78,1.78,0,0,1-.56-1.35V6.9a1.74,1.74,0,0,1,.59-1.35A2.16,2.16,0,0,1,227.32,5a1.92,1.92,0,0,1,1.39.53,1.78,1.78,0,0,1,.56,1.35v.48a1.78,1.78,0,0,1-.56,1.35A2,2,0,0,1,227.26,9.26Zm1.18,33.22a1.12,1.12,0,0,1-.35.83,1.16,1.16,0,0,1-.83.35,1.11,1.11,0,0,1-.85-.35,1.18,1.18,0,0,1-.33-.83v-28a1.13,1.13,0,0,1,.36-.83,1.18,1.18,0,0,1,1.68,0,1.17,1.17,0,0,1,.32.83Z"/><path d="M251.63,13.28a11.2,11.2,0,0,1,6.05,1.47,8.74,8.74,0,0,1,3.42,4,14.16,14.16,0,0,1,1.09,5.67v18A1.2,1.2,0,0,1,261,43.66a1.11,1.11,0,0,1-.85-.35,1.18,1.18,0,0,1-.33-.83V24.66a11.93,11.93,0,0,0-.85-4.6,7.15,7.15,0,0,0-2.72-3.3,8.6,8.6,0,0,0-4.87-1.24,11.16,11.16,0,0,0-5.07,1.24,11.78,11.78,0,0,0-4.1,3.3,7.28,7.28,0,0,0-1.62,4.6V42.48a1.2,1.2,0,0,1-2,.83,1.22,1.22,0,0,1-.32-.83V15.4a1.2,1.2,0,0,1,1.18-1.18,1.11,1.11,0,0,1,.85.35,1.18,1.18,0,0,1,.33.83v5.78L239.12,24a8.14,8.14,0,0,1,1.12-4.07,12.54,12.54,0,0,1,2.95-3.45,14.67,14.67,0,0,1,4.05-2.36A12.05,12.05,0,0,1,251.63,13.28Z"/></g></g></svg>